<svg xmlns="http://www.w3.org/2000/svg" width="109" height="73" viewBox="0 0 109 73">
  <g id="Group_37" data-name="Group 37" transform="translate(-1269 -8)">
    <g id="Group_32" data-name="Group 32" transform="translate(-20 -58)">
      <path id="Subtraction_5" data-name="Subtraction 5" d="M589.839,297H575.492L557.5,266l-17.99,31H525l32.5-56,27.541,47.453a18.482,18.482,0,0,0,4.8,8.546Z" transform="translate(764 -175)" fill="#e95428"/>
    </g>
    <g id="Group_33" data-name="Group 33" transform="translate(-86 -5)">
      <g id="Group_31" data-name="Group 31" transform="translate(54 -93)">
        <path id="Subtraction_4" data-name="Subtraction 4" d="M568,342a30.9,30.9,0,1,1,12.066-2.436A30.8,30.8,0,0,1,568,342Zm0-49.5a18.442,18.442,0,1,0,7.2,1.454A18.383,18.383,0,0,0,568,292.5Z" transform="translate(811 -163)" fill="#0f1226"/>
      </g>
      <rect id="Rectangle_26" data-name="Rectangle 26" width="16" height="16" transform="translate(1452.686 63.373) rotate(45)" fill="#0f1226"/>
    </g>
  </g>
</svg>
